<?xml version="1.0" standalone="no"?>
<!DOCTYPE svg PUBLIC "-//W3C//DTD SVG 20010904//EN"
 "http://www.w3.org/TR/2001/REC-SVG-20010904/DTD/svg10.dtd">
<svg version="1.0" xmlns="http://www.w3.org/2000/svg"
 width="225.000000pt" height="225.000000pt" viewBox="0 0 225.000000 225.000000"
 preserveAspectRatio="xMidYMid meet">
<metadata>
Created by potrace 1.14, written by Peter Selinger 2001-2017
</metadata>
<g transform="translate(0.000000,225.000000) scale(0.100000,-0.100000)"
fill="#000000" stroke="none">
<path d="M0 1125 l0 -1125 1125 0 1125 0 0 1125 0 1125 -1125 0 -1125 0 0
-1125z m1781 377 l217 -377 -20 -35 c-120 -210 -376 -653 -395 -683 l-23 -37
-436 2 -437 3 -119 205 c-66 113 -164 281 -218 374 l-97 169 110 191 c230 401
300 522 313 544 l14 22 438 0 437 0 216 -378z"/>
<path d="M767 1678 c-9 -18 -28 -53 -43 -78 -171 -292 -274 -471 -274 -476 0
-4 75 -138 168 -300 l167 -294 344 2 343 3 38 65 c20 36 89 157 154 269 64
112 123 216 131 231 13 26 8 37 -155 316 l-168 289 -344 3 -344 2 -17 -32z
m508 -450 c22 -40 44 -80 49 -89 6 -13 -5 -40 -44 -103 l-51 -86 -104 0 -104
0 -51 85 c-57 95 -58 76 12 198 l39 67 107 0 107 0 40 -72z"/>
</g>
</svg>
